#N canvas 770 108 1920 976 12;
#X msg 233 122 devices;
#X obj 273 208 sel 13 10;
#X obj 273 237 group 100;
#X obj 271 263 list tosymbol;
#X floatatom 272 329 5 0 0 0 - - - 0;
#X obj 269 301 symbol2any;
#X obj 273 169 comport 0 9600;
#X msg 346 122 open \$1;
#X floatatom 108 133 5 0 0 0 - - - 0;
#X obj 232 77 loadbang;
#X obj 271 370 outlet;
#X text 425 124 Elegir puerto serial;
#X text 388 174 Comunicación serial;
#X text 372 211 Detecta cambio de línea;
#X text 374 240 Agrupar mensaje;
#X text 381 265 Convertir ASCII a símbolo;
#X text 380 296 Símbolo a número;
#X connect 0 0 6 0;
#X connect 1 0 2 0;
#X connect 1 2 2 0;
#X connect 2 0 3 0;
#X connect 3 0 5 0;
#X connect 4 0 10 0;
#X connect 5 0 4 0;
#X connect 6 0 1 0;
#X connect 7 0 6 0;
#X connect 8 0 7 0;
#X connect 9 0 0 0;
#X coords 0 -1 1 1 85 60 1 100 100;
