#N canvas 160 160 450 300 12;
#X obj 219 147 osc~;
#X obj 226 196 *~;
#X obj 98 155 +~;
#X obj 95 192 osc~;
#X obj 95 216 outlet~;
#X obj 277 155 inlet;
#X obj 99 91 inlet;
#X obj 217 46 inlet;
#X text 56 57 Carrier Freq;
#X obj 214 98 *;
#X text 266 44 Modulation Index;
#X text 334 153 Modulation Amp;
#X connect 0 0 1 0;
#X connect 1 0 2 1;
#X connect 2 0 3 0;
#X connect 3 0 4 0;
#X connect 5 0 1 1;
#X connect 6 0 9 0;
#X connect 6 0 2 0;
#X connect 7 0 9 1;
#X connect 9 0 0 0;
