#N canvas 160 160 802 390 12;
#X obj 109 59 notein;
#X obj 109 91 stripnote;
#X floatatom 109 131 5 0 0 0 - - - 0;
#X obj 159 126 / 127;
#X obj 110 167 mtof;
#X obj 279 104 select 0;
#X obj 279 128 outlet;
#X obj 107 248 outlet;
#X obj 170 242 outlet;
#X obj 545 68 ctlin;
#X text 177 60 Mensajes de nota;
#X text 174 185 Eventos Note On;
#X text 342 132 Eventos Note OFF;
#X text 604 67 Mensajes de Control Change;
#X floatatom 509 113 5 0 0 0 - - - 0;
#X floatatom 559 117 5 0 0 0 - - - 0;
#X floatatom 607 120 5 0 0 0 - - - 0;
#X connect 0 0 1 0;
#X connect 0 1 1 1;
#X connect 0 1 5 0;
#X connect 1 0 2 0;
#X connect 1 1 3 0;
#X connect 2 0 4 0;
#X connect 3 0 8 0;
#X connect 4 0 7 0;
#X connect 5 0 6 0;
#X connect 9 0 14 0;
#X connect 9 1 15 0;
#X connect 9 2 16 0;
