#N canvas 160 160 450 300 12;
#X obj 175 54 inlet;
#X obj 175 78 osc~;
#X obj 175 102 *~;
#X obj 259 83 osc~;
#X obj 259 54 inlet;
#X obj 179 151 outlet~;
#X text 163 31 Carrier;
#X text 265 31 Mod;
#X connect 0 0 1 0;
#X connect 1 0 2 0;
#X connect 2 0 5 0;
#X connect 3 0 2 1;
#X connect 4 0 3 0;
