#N canvas 770 108 805 529 12;
#X msg 281 72 devices;
#X msg 362 75 open 6;
#X obj 284 141 comport 1 9600;
#X obj 288 190 sel 13 10;
#X obj 312 266 zl group 100;
#X connect 0 0 2 0;
#X connect 1 0 2 0;
#X connect 2 0 3 0;
