#N canvas 210 190 1117 620 12;
#X obj 234 53 inlet;
#X floatatom 234 92 5 0 0 0 - - - 0;
#X obj 123 203 osc~;
#X obj 123 251 +~;
#X obj 378 360 outlet~;
#X text 287 92 Frecuencia de entrada;
#X obj 124 174 * 1;
#X obj 184 203 osc~;
#X obj 184 251 +~;
#X obj 248 202 osc~;
#X obj 248 250 +~;
#X obj 309 202 osc~;
#X obj 309 250 +~;
#X obj 368 195 osc~;
#X obj 368 243 +~;
#X obj 429 195 osc~;
#X obj 429 243 +~;
#X obj 493 194 osc~;
#X obj 493 242 +~;
#X obj 554 194 osc~;
#X obj 554 242 +~;
#X obj 620 195 osc~;
#X obj 620 243 +~;
#X obj 681 195 osc~;
#X obj 681 243 +~;
#X obj 185 174 * 0.56;
#X obj 249 173 * 0.92;
#X obj 310 173 * 0.92;
#X obj 369 166 * 1.19;
#X obj 430 166 * 1.71;
#X obj 494 165 * 2;
#X obj 555 165 * 2.74;
#X obj 621 166 * 3;
#X obj 682 166 * 3.76;
#X obj 744 196 osc~;
#X obj 744 244 +~;
#X obj 745 167 * 4.07;
#X text 794 195 Banco de osciladores;
#X text 800 166 Parciales de la frecuencia fundamentañ;
#X obj 123 227 *~ 0.5;
#X obj 184 227 *~ 0.05;
#X obj 248 226 *~ 0.05;
#X obj 309 226 *~ 0.05;
#X obj 368 219 *~ 0.05;
#X obj 429 219 *~ 0.05;
#X obj 493 218 *~ 0.05;
#X obj 554 218 *~ 0.05;
#X obj 620 219 *~ 0.05;
#X obj 681 219 *~ 0.05;
#X obj 744 220 *~ 0.05;
#X text 802 223 Relación de amplitud *En total no deben sumar mas
de 1;
#X connect 0 0 1 0;
#X connect 1 0 6 0;
#X connect 1 0 25 0;
#X connect 1 0 26 0;
#X connect 1 0 27 0;
#X connect 1 0 28 0;
#X connect 1 0 29 0;
#X connect 1 0 30 0;
#X connect 1 0 31 0;
#X connect 1 0 32 0;
#X connect 1 0 33 0;
#X connect 2 0 39 0;
#X connect 3 0 4 0;
#X connect 6 0 2 0;
#X connect 7 0 40 0;
#X connect 8 0 4 0;
#X connect 9 0 41 0;
#X connect 10 0 4 0;
#X connect 11 0 42 0;
#X connect 12 0 4 0;
#X connect 13 0 43 0;
#X connect 14 0 4 0;
#X connect 15 0 44 0;
#X connect 16 0 4 0;
#X connect 17 0 45 0;
#X connect 18 0 4 0;
#X connect 19 0 46 0;
#X connect 20 0 4 0;
#X connect 21 0 47 0;
#X connect 22 0 4 0;
#X connect 23 0 48 0;
#X connect 24 0 4 0;
#X connect 25 0 7 0;
#X connect 26 0 9 0;
#X connect 27 0 11 0;
#X connect 28 0 13 0;
#X connect 29 0 15 0;
#X connect 30 0 17 0;
#X connect 31 0 19 0;
#X connect 32 0 21 0;
#X connect 33 0 23 0;
#X connect 34 0 49 0;
#X connect 35 0 4 0;
#X connect 36 0 34 0;
#X connect 39 0 3 0;
#X connect 40 0 8 0;
#X connect 41 0 10 0;
#X connect 42 0 12 0;
#X connect 43 0 14 0;
#X connect 44 0 16 0;
#X connect 45 0 18 0;
#X connect 46 0 20 0;
#X connect 47 0 22 0;
#X connect 48 0 24 0;
#X connect 49 0 35 0;
