#N canvas 160 160 823 586 12;
#X obj 95 317 clip~ -1 1;
#X obj 223 317 clip~ -1 1;
#X obj 99 361 tabwrite~ osc1;
#X obj 310 371 tabwrite~ osc2;
#X obj 165 496 dac~;
#X obj 399 45 tgl 15 0 empty empty empty 17 7 0 10 #ff0400 #000000
#000000 0 1;
#X msg 502 394 \; pd dsp \$1;
#X obj 93 271 *~;
#X obj 399 75 vsl 15 128 0 1 0 0 empty empty empty 0 -9 0 10 #9c00ff
#000000 #000000 0 1;
#X obj 219 270 *~;
#X obj 436 82 vu 15 120 empty empty -1 -8 0 10 #404040 #000000 1 0
;
#N canvas 0 50 450 250 (subpatch) 0;
#X array osc1 100 float 5;
#A 0 0 0 0 0 0 0 0 0 0 0 0 0 0 0 0 0 0 0 0 0 0 0 0 0 0 0 0 0 0 0 0
0 0 0 0 0 0 0 0 0 0 0 0 0 0 0 0 0 0 0 0 0 0 0 0 0 0 0 0 0 0 0 0 0 0
0 0 0 0 0 0 0 0 0 0 0 0 0 0 0 0 0 0 0 0 0 0 0 0 0 0 0 0 0 0 0 0 0 0
0;
#X coords 0 1 99 -1 100 70 2 0 0;
#X restore 541 64 graph;
#N canvas 96 96 450 250 (subpatch) 0;
#X array osc2 100 float 5;
#A 0 0 0 0 0 0 0 0 0 0 0 0 0 0 0 0 0 0 0 0 0 0 0 0 0 0 0 0 0 0 0 0
0 0 0 0 0 0 0 0 0 0 0 0 0 0 0 0 0 0 0 0 0 0 0 0 0 0 0 0 0 0 0 0 0 0
0 0 0 0 0 0 0 0 0 0 0 0 0 0 0 0 0 0 0 0 0 0 0 0 0 0 0 0 0 0 0 0 0 0
0;
#X coords 0 1 99 -1 100 70 2 0 0;
#X restore 540 143 graph;
#X obj 92 221 inlet~;
#X obj 220 226 inlet~;
#X text 431 49 Audio On;
#X obj 179 180 metro 100;
#X obj 180 152 tgl 15 0 empty empty empty 17 7 0 10 #fcfcfc #000000
#000000 0 1;
#X obj 177 117 loadbang;
#X obj 91 409 env~;
#X obj 91 433 - 100;
#X obj 229 415 env~;
#X obj 229 439 - 100;
#X obj 491 80 vu 15 120 empty empty -1 -8 0 10 #404040 #000000 1 0
;
#X obj 553 320 line~;
#X msg 547 268 \$1 5;
#X connect 0 0 2 0;
#X connect 0 0 4 0;
#X connect 0 0 19 0;
#X connect 1 0 3 0;
#X connect 1 0 4 1;
#X connect 1 0 21 0;
#X connect 5 0 6 0;
#X connect 7 0 0 0;
#X connect 8 0 25 0;
#X connect 9 0 1 0;
#X connect 13 0 7 0;
#X connect 14 0 9 0;
#X connect 16 0 2 0;
#X connect 16 0 3 0;
#X connect 17 0 16 0;
#X connect 18 0 17 0;
#X connect 19 0 20 0;
#X connect 20 0 10 0;
#X connect 21 0 22 0;
#X connect 22 0 23 0;
#X connect 24 0 9 1;
#X connect 24 0 7 1;
#X connect 25 0 24 0;
#X coords 0 -1 1 1 300 200 1 370 20;
